<?xml version="1.0" encoding="UTF-8" standalone="no"?>
<svg
   xmlns:dc="http://purl.org/dc/elements/1.1/"
   xmlns:cc="http://creativecommons.org/ns#"
   xmlns:rdf="http://www.w3.org/1999/02/22-rdf-syntax-ns#"
   xmlns:svg="http://www.w3.org/2000/svg"
   xmlns="http://www.w3.org/2000/svg"
   width="800"
   height="498.99701"
   viewBox="0 0 800.00001 498.99702"
   id="svg4715"
   version="1.1">
  <defs
     id="defs4717" />
  <metadata
     id="metadata4720">
    <rdf:RDF>
      <cc:Work
         rdf:about="">
        <dc:format>image/svg+xml</dc:format>
        <dc:type
           rdf:resource="http://purl.org/dc/dcmitype/StillImage" />
        <dc:title></dc:title>
      </cc:Work>
    </rdf:RDF>
  </metadata>
  <g
     style="opacity:1;fill:#404040;fill-opacity:1"
     id="layer1"
     transform="translate(0,-553.36516)">
    <path
       style="color:#000000;clip-rule:nonzero;display:inline;overflow:visible;visibility:visible;opacity:1;isolation:auto;mix-blend-mode:normal;color-interpolation:sRGB;color-interpolation-filters:linearRGB;solid-color:#000000;solid-opacity:1;fill:#404040;fill-opacity:1;fill-rule:nonzero;stroke:none;stroke-width:12.80099964;stroke-miterlimit:4;stroke-dasharray:none;stroke-opacity:1;color-rendering:auto;image-rendering:auto;shape-rendering:auto;text-rendering:auto;enable-background:accumulate"
       d="m 0,553.36515 0,498.99705 800,0 0,-498.99705 -800,0 z m 11.701639,12.58679 2.947539,0 275.714332,236.91392 -275.709907,236.90504 -2.951964,0 0,-473.81896 z m 773.981111,0 2.61562,0 0,473.81896 -2.62004,0 L 516.20868,802.86586 404.57841,901.00207 785.68275,565.95194 Z m -756.548147,0.0708 741.730797,0 L 404.24205,888.34449 29.134603,566.02275 Z m 267.438217,243.91101 107.74449,92.57749 105.31032,-92.57749 261.42807,229.83715 -741.969779,0 267.486899,-229.83715 z"
       id="rect5274" />
  </g>
</svg>
